<svg xmlns="http://www.w3.org/2000/svg" viewBox="0 0 100 100" width="100" height="100">
  <rect x="5" y="5" width="90" height="90" rx="15" fill="white" stroke="#111" stroke-width="4"/>
  <rect x="22" y="22" width="22" height="22" rx="4" fill="none" stroke="#111" stroke-width="3"/>
  <line x1="33" y1="22" x2="33" y2="44" stroke="#111" stroke-width="2"/>
  <line x1="22" y1="33" x2="44" y2="33" stroke="#111" stroke-width="2"/>
  <text x="28" y="38" font-family="Arial" font-size="10" fill="#111" font-weight="bold">X</text>
  <text x="36" y="30" font-family="Arial" font-size="10" fill="#111" font-weight="bold">O</text>
  <path d="M62 30 Q68 22, 74 30 Q80 38, 74 46 Q68 54, 62 46" fill="none" stroke="#111" stroke-width="3" stroke-linecap="round"/>
  <text x="60" y="75" font-family="Arial" font-size="20" fill="#111" font-weight="bold">#</text>
  <path d="M30 62 L30 82 M38 62 L38 82 M30 66 L38 66 M30 74 L38 74" fill="none" stroke="#111" stroke-width="2" stroke-linecap="round"/>
  <path d="M60 82 L65 62 L70 82" fill="none" stroke="#111" stroke-width="2" stroke-linecap="round" stroke-linejoin="round"/>
  <line x1="63" y1="76" x2="67" y2="76" stroke="#111" stroke-width="2"/>
</svg>
